{"title":"Love.Rosie.2014.WEBRip.480p.x264.AAC-VYTO [P2PDL]","uid":11691910,"size":375593605,"categoryP":"video","categoryS":"movies","magnet":"?xt=urn:btih:880c82a2ebc6e9e25d537099ec8f091726c78522&amp;dn=Love.Rosie.2014.WEBRip.480p.x264.AAC-VYTO+%5BP2PDL%5D&amp;tr=udp%3A%2F%2Ftracker.openbittorrent.com%3A80&amp;tr=udp%3A%2F%2Fopen.demonii.com%3A1337&amp;tr=udp%3A%2F%2Ftracker.coppersurfer.tk%3A6969&amp;tr=udp%3A%2F%2Fexodus.desync.com%3A6969","seeders":22,"leechers":4,"uploader":"ValidusVyto","files":6,"time":1423579939,"description":"Love.Rosie.2014.WEBRip.480p.x264.AAC-VYTO\n\n\nGenre: Comedy | Romance \nIMDb: http://www.imdb.com/title/tt1638002/\n\nFormat                      : MPEG-4\nFile size                   : 351 MiB\nDuration                    : 1h 42mn\nOverall bit rate            : 478 Kbps\n\nVideo\nFormat                      : AVC\nBit rate                    : 443 Kbps\nWidth                       : 720 pixels\nHeight                      : 304 pixels\nDisplay aspect ratio        : 2.35:1\nFrame rate mode             : Constant\nFrame rate                  : 23.976 fps\nColor space                 : YUV\nChroma subsampling          : 4:2:0\nBit depth                   : 8 bits\nStream size                 : 325 MiB (93%)\nWriting library             : x264 core 142 r2491 24e4fed\n\nAudio\nFormat                      : AAC\nBit rate mode               : Variable\nBit rate                    : 32.0 Kbps\nChannel(s)                  : 2 channels \nChannel positions           : Front: L R\nSampling rate               : 48.0 KHz\nStream size                 : 23.5 MiB (7%)\nLanguage                    : English\n\nSubtitle                    : Yes(English)\nSource                      : 720p.WEB-DL.DD5.1.H264\n----------------------------------------------------------------------------------------------------\n\n\nEncoder Notes: Looking For Early Access To Anything You Can Provide DVDScr, R5, DVDR, BluRay, Direct\nAudio, Music Releases and Seedboxes. If You Got anything to offer please contact us.\n\nWe require dedicated servers, so as to do more and fast releases of movies.\nSupport us by sending us LC - LezHMTo2cYaiztCCcWxB4cNFVNVpWW3GSx","torrent":{"xt":"urn:btih:880c82a2ebc6e9e25d537099ec8f091726c78522","amp;dn":"Love.Rosie.2014.WEBRip.480p.x264.AAC-VYTO+%5BP2PDL%5D","amp;tr":["udp%3A%2F%2Ftracker.openbittorrent.com%3A80","udp%3A%2F%2Fopen.demonii.com%3A1337","udp%3A%2F%2Ftracker.coppersurfer.tk%3A6969","udp%3A%2F%2Fexodus.desync.com%3A6969"],"infoHash":"880c82a2ebc6e9e25d537099ec8f091726c78522","infoHashBuffer":{"type":"Buffer","data":[136,12,130,162,235,198,233,226,93,83,112,153,236,143,9,23,38,199,133,34]},"announce":[],"urlList":[]}}